<?xml version="1.0" encoding="UTF-8" standalone="no"?>
<!DOCTYPE svg PUBLIC "-//W3C//DTD SVG 1.1//EN" "http://www.w3.org/Graphics/SVG/1.1/DTD/svg11.dtd">
<svg width="100%" height="100%" viewBox="0 0 764 224" version="1.1" xmlns="http://www.w3.org/2000/svg" xmlns:xlink="http://www.w3.org/1999/xlink" xml:space="preserve" xmlns:serif="http://www.serif.com/" style="fill-rule:evenodd;clip-rule:evenodd;stroke-linejoin:round;stroke-miterlimit:2;">
    <g transform="matrix(1,0,0,1,-202.105578,-280.476128)">
        <g>
            <g transform="matrix(1.140625,0,0,1.140625,0,0)">
                <path d="M177.244,303.501C177.232,299.101 177.143,264.401 177.309,248.494C177.34,245.566 178.62,245.888 186.497,245.925C245.087,246.206 288.6,245.815 300.516,246.061C302.135,246.095 303.368,246.13 303.439,248.503C303.535,251.748 303.461,400.8 303.446,405.5C303.337,439.943 303.789,441.021 302.626,441.662C301.468,442.3 301.367,442.099 267.5,442.119C252.852,442.128 252.433,442.447 251.901,441.311C251.764,441.018 251.195,433.85 251.979,432.95C252.634,432.2 255.427,432.381 257.498,432.355C272.131,432.172 273.12,433.085 273.086,431.58C273.062,430.481 272.624,430.739 271.584,430.39C266.363,428.637 257.186,422.021 251.784,417.18C234.687,401.857 229.984,388.482 227.766,384.369C224.505,378.321 220.644,364.938 219.776,355.47C218.707,343.805 219.157,341.985 219.758,334.523C220.461,325.79 223.542,314.367 226.102,308.332C234.432,288.689 242.332,281.323 245.026,278.09C251.153,270.733 263.58,261.339 268.599,258.673C270.744,257.533 270.965,258.013 272.853,256.714C273.43,256.318 273.635,256.235 273.244,255.642C272.717,254.842 272.555,255.008 271.6,255.132C270.547,255.268 270.556,255.212 269.503,255.317C264.329,255.834 264.325,255.668 204.501,255.793C188.626,255.826 187.634,255.311 187.256,257.46C187.057,258.596 187.155,281.418 187.164,283.501C187.267,307.384 187.054,307.378 187.175,418.501C187.189,431.189 186.845,431.925 188.549,432.295C189.326,432.464 209.664,432.464 211.5,432.464C214.904,432.464 216.215,432.096 216.073,435.496C215.989,437.524 216.118,437.503 216.071,439.517C216.065,439.76 216.016,441.824 214.465,442.105C213.82,442.221 213.155,442.105 212.5,442.106C209.766,442.109 209.774,442.114 208.496,442.12C205.549,442.134 197.46,442.127 196.501,442.126C179.103,442.11 179.068,442.153 178.313,441.824C176.54,441.049 177.461,440.248 177.209,386.502C177.178,379.862 177.309,379.885 177.244,303.501ZM241.654,298.6C236.332,306.74 231.344,320.535 230.137,329.455C229.204,336.352 225.724,356.23 235.839,379.357C240.516,390.052 244.567,394.941 249.609,401.394C250.372,402.371 250.286,402.696 251.536,402.603C252.674,402.519 252.096,401.907 252.047,397.503C251.934,387.369 251.893,334.029 251.889,328.509C251.861,290.794 251.709,290.792 252.054,287.532C252.13,286.81 252.322,286.645 251.664,286.309C251.006,285.973 250.912,285.744 250.397,286.265C249.419,287.258 249.502,287.326 242.87,296.747C242.768,296.892 242.787,296.9 241.654,298.6Z" style="fill:white;"/>
            </g>
            <g transform="matrix(1.140625,0,0,1.140625,0,0)">
                <path d="M683.643,326.808C683.91,326.695 687.168,324.94 693.501,324.514C707.697,323.559 714.086,328.518 716.199,329.898C722.921,334.286 726.713,342.31 727.315,343.586C731.871,353.227 734.29,379.986 718.78,392.841C704.197,404.928 687.668,399.22 687.593,399.197C686.808,398.956 682.317,397.573 678.343,394.728C677.657,394.237 673.794,391.471 670.988,387.167C665.899,379.362 665.118,374.888 664.408,370.514C662.018,355.798 666.787,343.787 668.263,341.37C673.18,333.314 675.844,330.719 683.643,326.808ZM719.128,356.544C719.033,356.066 717.629,345.993 711.754,340.24C706.934,335.52 701.458,334.736 699.517,334.385C694.176,333.42 686.474,335.672 681.874,340.832C678.614,344.489 676.436,351.34 675.998,353.602C672.58,371.258 680.21,381.144 680.454,381.531C687.138,392.141 705.347,393.021 713.024,383.089C721.785,371.756 719.325,358.702 719.128,356.544Z" style="fill:white;"/>
            </g>
            <g transform="matrix(1.140625,0,0,1.140625,0,0)">
                <path d="M819.506,334.148C818.264,334.158 815.951,334.051 813.546,334.69C805.418,336.851 803.189,339.752 801.088,343.26C799.468,345.965 798.682,345.589 792.579,344.172C789.971,343.567 789.555,342.997 790.51,340.503C792.657,334.902 794.998,332.148 800.619,328.703C812.807,321.231 829.804,325.145 833.633,327.229C836.217,328.635 844.272,331.843 846.335,344.525C846.642,346.418 846.715,346.864 846.715,368.5C846.715,397.65 846.841,398.152 845.592,398.667C845.014,398.905 842.754,398.919 842.506,398.921C837.034,398.954 835.469,399.343 835.396,396.502C835.31,393.11 835.767,389.705 835.715,389.405C835.535,388.351 834.347,388.356 833.914,388.872C832.979,389.988 834.423,391.254 827.401,396.353C818.443,402.857 806.458,400.901 801.364,398.837C790.609,394.48 787.192,385.564 786.932,380.47C786.157,365.319 795.203,361.324 801.679,358.957C810.504,355.733 827.458,355.64 832.488,353.474C837.839,351.169 834.578,342.539 833.272,340.654C829.097,334.628 820.722,334.208 819.506,334.148ZM832.44,363.261C822.587,365.642 816.667,364.538 806.509,367.532C796.405,370.509 795.202,384.539 805.349,388.88C814.424,392.763 825.887,389.331 830.111,384.158C836.503,376.33 835.137,371.018 835.4,365.494C835.582,361.685 833.537,363.192 832.44,363.261Z" style="fill:white;"/>
            </g>
            <g transform="matrix(1.140625,0,0,1.140625,0,0)">
                <path d="M623.505,334.052C620.745,334.099 618.836,333.845 612.477,336.45C610.603,337.218 608.144,338.864 606.648,340.624C604.016,343.719 604.656,345.704 600.429,344.86C596.214,344.018 593.713,343.824 593.511,342.497C593.336,341.352 593.605,341.391 594.034,340.317C594.298,339.656 595.75,336.021 598.847,332.831C599.54,332.117 602.843,328.714 609.429,326.299C614.391,324.479 634.558,321.056 644.604,332.409C649.97,338.472 650.298,345.29 650.357,346.507C650.636,352.324 650.339,394.078 650.333,394.497C650.287,397.681 650.699,398.855 647.515,398.901C640.187,399.005 640.042,398.858 639.597,398.405C638.438,397.228 639.674,389.19 639.223,388.691C639.104,388.561 637.975,388.552 637.722,388.748C637.535,388.894 637.882,389.082 636.345,391.381C634.281,394.465 628.938,398.068 626.316,399.05C621.838,400.726 615.527,401 611.508,400.443C594.138,398.036 591.446,383.885 591.182,380.53C590.115,366.943 597.809,362.802 600.354,361.236C612.133,353.986 635.709,357.161 638.536,351.521C640.263,348.075 638.69,340.037 633.226,336.935C627.66,333.774 624.557,334.096 623.505,334.052ZM639.211,365.493C639.139,364.179 639.514,364.018 638.708,363.253C637.799,362.39 637.648,362.887 636.423,363.204C629.467,365.001 623.777,364.712 616.43,366.084C610.665,367.161 609.23,367.655 606.508,369.51C599.851,374.047 600.966,384.859 608.495,388.51C618.619,393.42 630.12,388.578 633.502,384.502C639.656,377.086 639.117,373.936 639.211,365.493Z" style="fill:white;"/>
            </g>
            <g transform="matrix(1.140625,0,0,1.140625,0,0)">
                <path d="M462.681,398.134C460.867,397.166 460.878,397.19 460.726,397.099C446.249,388.412 449.183,371.298 453.848,365.79C464.771,352.893 491.77,357.763 497.208,352.236C498.894,350.523 498.196,346.093 498.113,345.56C497.937,344.447 496.875,337.703 488.603,335.167C487.223,334.744 479.373,332.337 470.646,336.801C463.525,340.443 464.444,344.622 461.487,345.148C461.162,345.206 453.751,343.91 453.36,343.729C452.964,343.545 451.608,342.917 454.168,338.332C454.426,337.87 455.991,335.066 457.952,332.905C465.127,325 476.724,324.552 478.499,324.483C484.585,324.248 505.852,323.601 509.11,344.547C509.495,347.026 509.258,379.846 509.37,393.501C509.404,397.532 510.027,399.151 506.492,398.958C503.476,398.794 503.496,399.04 500.468,398.918C500.318,398.912 499.114,398.864 498.676,398.356C497.729,397.257 498.676,389.714 498.652,389.453C498.558,388.467 498.452,388.253 497.47,388.381C495.979,388.574 497.31,390.006 493.567,393.569C485.895,400.872 478.346,400.82 474.494,400.717C466.903,400.513 462.848,398.207 462.681,398.134ZM495.415,363.21C484.358,366.006 468.318,364.6 463.472,371.478C457.541,379.897 463.427,391.189 477.502,390.547C491.201,389.922 495.068,382.383 497.384,376.456C497.733,375.563 498.377,373.916 498.305,364.507C498.303,364.312 498.289,362.441 496.567,362.8C496.168,362.883 495.814,363.127 495.415,363.21Z" style="fill:white;"/>
            </g>
            <g transform="matrix(1.140625,0,0,1.140625,0,0)">
                <path d="M356.147,361.574C356.081,361.191 354.714,356.637 355.23,345.486C356.101,326.675 365.74,315.41 366.435,314.451C370.819,308.414 378.301,304.243 380.397,303.276C398.458,294.945 421.875,299.28 434.363,318.592C437.155,322.911 439.281,330.007 438.102,331.039C437.584,331.493 437.508,331.454 429.5,331.457C424.882,331.46 427.74,327.301 420.57,319.438C412.725,310.837 399.641,308.565 390.492,311.475C379.827,314.867 375.304,321.646 374.576,322.559C363.614,336.311 366.205,357.817 368.772,365.415C372.593,376.724 377.965,381.184 380.606,383.368C386.418,388.172 395.869,389.136 398.491,389.107C411.587,388.963 417.317,382.965 418.72,381.759C422.565,378.457 422.857,377.483 423.944,375.778C427.487,370.219 426.081,368.372 429.482,368.164C430.047,368.13 433.903,367.894 436.559,368.034C436.744,368.044 438.319,368.127 438.354,369.501C438.37,370.096 436.314,381.477 426.376,390.356C419.754,396.273 410.059,399.813 402.481,400.163C399.509,400.3 384.444,401.829 371.61,390.374C359.894,379.919 357.726,368.518 356.147,361.574Z" style="fill:white;"/>
            </g>
            <g transform="matrix(1.140625,0,0,1.140625,0,0)">
                <path d="M539.554,326.63C540.511,326.295 543.659,324.995 548.509,324.629C552.385,324.338 557.351,324.598 559.448,324.889C567.399,325.993 574.645,330.549 577.785,338.39C579.48,342.623 578.791,343.381 576.531,343.678C570.946,344.411 570.988,344.679 570.5,344.662C567.533,344.561 569.308,341.981 564.949,338.006C564.337,337.449 560.882,334.299 555.459,333.887C545.641,333.142 541.558,336.771 540.476,337.467C537.032,339.686 535.82,344.134 537.535,348.486C542.305,360.596 575.349,352.908 580.177,372.582C584.552,390.407 567.749,400.25 553.504,400.664C540.954,401.028 534.234,395.964 533.488,395.518C527.595,391.997 522.682,382.291 524.687,380.762C525.22,380.355 525.285,380.511 527.444,380.159C532.841,379.279 533.944,378.161 535.355,381.564C535.95,382.999 537.734,386.085 540.419,387.631C546.16,390.937 551.623,390.503 555.484,390.267C564.993,389.685 568.823,383.472 569.125,379.461C569.43,375.417 567.973,370.859 559.488,368.542C548.755,365.613 537.646,366.112 530.009,357.963C523.726,351.258 524.472,340.825 528.277,335.354C531.302,331.005 533.334,329.506 539.554,326.63Z" style="fill:white;"/>
            </g>
            <g transform="matrix(1.140625,0,0,1.140625,0,0)">
                <path d="M748.51,398.896C745.664,398.909 744.549,399.349 744.544,396.5C744.491,366.496 744.596,366.513 744.423,336.5C744.365,326.316 744.407,325.942 745.526,325.567C746.206,325.339 748.563,325.468 751.498,325.417C751.739,325.413 754.097,325.372 754.501,325.496C755.574,325.827 755.63,327.306 755.637,327.49C755.754,330.563 754.974,335.435 755.826,336.015C756.874,336.728 757.532,334.74 757.589,334.567C758.677,331.276 760.924,329.942 763.271,328.179C763.534,327.982 766.679,325.15 772.485,324.382C774.458,324.121 780.104,324.092 781.137,324.924C782.027,325.64 781.799,327.939 781.856,332.496C781.886,334.931 781.93,335.751 779.495,335.611C775.595,335.388 769.784,334.89 763.463,338.44C761.192,339.716 756.473,344.455 756.132,349.476C755.936,352.36 756.257,395.851 755.668,397.569C755.144,399.094 752.647,398.812 748.51,398.896Z" style="fill:white;"/>
            </g>
        </g>
    </g>
</svg>
