<?xml version="1.0" encoding="UTF-8" standalone="no"?>
<!DOCTYPE svg PUBLIC "-//W3C//DTD SVG 1.1//EN" "http://www.w3.org/Graphics/SVG/1.1/DTD/svg11.dtd">
<svg width="100%" height="100%" viewBox="0 0 145 224" version="1.1" xmlns="http://www.w3.org/2000/svg" xmlns:xlink="http://www.w3.org/1999/xlink" xml:space="preserve" xmlns:serif="http://www.serif.com/" style="fill-rule:evenodd;clip-rule:evenodd;stroke-linejoin:round;stroke-miterlimit:2;">
    <g transform="matrix(1,0,0,1,-202.105578,-280.476128)">
        <g transform="matrix(1.140625,0,0,1.140625,0,0)">
            <path d="M177.244,303.501C177.232,299.101 177.143,264.401 177.309,248.494C177.34,245.566 178.62,245.888 186.497,245.925C245.087,246.206 288.6,245.815 300.516,246.061C302.135,246.095 303.368,246.13 303.439,248.503C303.535,251.748 303.461,400.8 303.446,405.5C303.337,439.943 303.789,441.021 302.626,441.662C301.468,442.3 301.367,442.099 267.5,442.119C252.852,442.128 252.433,442.447 251.901,441.311C251.764,441.018 251.195,433.85 251.979,432.95C252.634,432.2 255.427,432.381 257.498,432.355C272.131,432.172 273.12,433.085 273.086,431.58C273.062,430.481 272.624,430.739 271.584,430.39C266.363,428.637 257.186,422.021 251.784,417.18C234.687,401.857 229.984,388.482 227.766,384.369C224.505,378.321 220.644,364.938 219.776,355.47C218.707,343.805 219.157,341.985 219.758,334.523C220.461,325.79 223.542,314.367 226.102,308.332C234.432,288.689 242.332,281.323 245.026,278.09C251.153,270.733 263.58,261.339 268.599,258.673C270.744,257.533 270.965,258.013 272.853,256.714C273.43,256.318 273.635,256.235 273.244,255.642C272.717,254.842 272.555,255.008 271.6,255.132C270.547,255.268 270.556,255.212 269.503,255.317C264.329,255.834 264.325,255.668 204.501,255.793C188.626,255.826 187.634,255.311 187.256,257.46C187.057,258.596 187.155,281.418 187.164,283.501C187.267,307.384 187.054,307.378 187.175,418.501C187.189,431.189 186.845,431.925 188.549,432.295C189.326,432.464 209.664,432.464 211.5,432.464C214.904,432.464 216.215,432.096 216.073,435.496C215.989,437.524 216.118,437.503 216.071,439.517C216.065,439.76 216.016,441.824 214.465,442.105C213.82,442.221 213.155,442.105 212.5,442.106C209.766,442.109 209.774,442.114 208.496,442.12C205.549,442.134 197.46,442.127 196.501,442.126C179.103,442.11 179.068,442.153 178.313,441.824C176.54,441.049 177.461,440.248 177.209,386.502C177.178,379.862 177.309,379.885 177.244,303.501ZM241.654,298.6C236.332,306.74 231.344,320.535 230.137,329.455C229.204,336.352 225.724,356.23 235.839,379.357C240.516,390.052 244.567,394.941 249.609,401.394C250.372,402.371 250.286,402.696 251.536,402.603C252.674,402.519 252.096,401.907 252.047,397.503C251.934,387.369 251.893,334.029 251.889,328.509C251.861,290.794 251.709,290.792 252.054,287.532C252.13,286.81 252.322,286.645 251.664,286.309C251.006,285.973 250.912,285.744 250.397,286.265C249.419,287.258 249.502,287.326 242.87,296.747C242.768,296.892 242.787,296.9 241.654,298.6Z" style="fill:rgb(218,30,55);"/>
        </g>
    </g>
</svg>
